<?xml version="1.0" encoding="utf-8"?>
<!-- Generator: Adobe Illustrator 23.0.3, SVG Export Plug-In . SVG Version: 6.00 Build 0)  -->
<svg version="1.1" id="Layer_1" xmlns="http://www.w3.org/2000/svg" xmlns:xlink="http://www.w3.org/1999/xlink" x="0px" y="0px"
	 viewBox="0 0 300 300" enable-background="new 0 0 300 300" xml:space="preserve">
<g>
	<circle fill="#FFFFFF" cx="150" cy="150" r="149.5"/>
	<path d="M150,1c39.8,0,77.22,15.5,105.36,43.64S299,110.2,299,150s-15.5,77.22-43.64,105.36S189.8,299,150,299
		s-77.22-15.5-105.36-43.64S1,189.8,1,150S16.5,72.78,44.64,44.64S110.2,1,150,1 M150,0C67.16,0,0,67.16,0,150s67.16,150,150,150
		s150-67.16,150-150S232.84,0,150,0L150,0z"/>
</g>
<g>
	<circle fill="#FFFFFF" cx="150" cy="150" r="112.26"/>
	<path d="M150,38.24c29.85,0,57.92,11.62,79.03,32.73s32.73,49.17,32.73,79.03s-11.62,57.92-32.73,79.03s-49.17,32.73-79.03,32.73
		s-57.92-11.62-79.03-32.73S38.24,179.85,38.24,150s11.62-57.92,32.73-79.03S120.15,38.24,150,38.24 M150,37.24
		C87.73,37.24,37.24,87.73,37.24,150S87.73,262.76,150,262.76S262.76,212.27,262.76,150S212.27,37.24,150,37.24L150,37.24z"/>
</g>
<g>
	
		<ellipse transform="matrix(0.7071 -0.7071 0.7071 0.7071 -62.132 149.9999)" fill="#FFFFFF" cx="150" cy="150" rx="70.88" ry="70.88"/>
	<path d="M150,79.62c38.81,0,70.38,31.57,70.38,70.38s-31.57,70.38-70.38,70.38S79.62,188.81,79.62,150S111.19,79.62,150,79.62
		 M150,78.62c-39.42,0-71.38,31.96-71.38,71.38s31.96,71.38,71.38,71.38s71.38-31.96,71.38-71.38S189.42,78.62,150,78.62L150,78.62z
		"/>
</g>
<g>
	<path fill="#FFFFFF" d="M150,177.43c-15.13,0-27.43-12.31-27.43-27.43c0-15.13,12.31-27.43,27.43-27.43
		c15.12,0,27.43,12.31,27.43,27.43C177.43,165.12,165.12,177.43,150,177.43z"/>
	<path d="M150,123.07c14.85,0,26.93,12.08,26.93,26.93s-12.08,26.93-26.93,26.93s-26.93-12.08-26.93-26.93S135.15,123.07,150,123.07
		 M150,122.07c-15.43,0-27.93,12.51-27.93,27.93s12.51,27.93,27.93,27.93s27.93-12.51,27.93-27.93S165.43,122.07,150,122.07
		L150,122.07z"/>
</g>
</svg>
