<svg id="Layer_2" data-name="Layer 2" xmlns="http://www.w3.org/2000/svg" width="300" height="300" viewBox="0 0 300 300">
  <defs>
    <style>
      .cls-1, .cls-2, .cls-3, .cls-4, .cls-5 {
        fill: none;
        stroke-miterlimit: 10;
        stroke-width: 13px;
      }

      .cls-1 {
        stroke: #d34022;
      }

      .cls-2 {
        stroke: #fad22f;
      }

      .cls-3 {
        stroke: #53c66b;
      }

      .cls-4 {
        stroke: #4d76da;
      }

      .cls-5 {
        stroke: #6f21a4;
      }

      .cls-6 {
        fill: #eaeeef;
      }

      .cls-7 {
        fill: #d6ddde;
      }
    </style>
  </defs>
  <title>rainbow</title>
  <path class="cls-1" d="M116.15,202.33V179.58a32.71,32.71,0,0,1,65.41,0v22.75"/>
  <path class="cls-2" d="M103.77,202.33V179.58a45.09,45.09,0,1,1,90.18,0v22.75"/>
  <path class="cls-3" d="M90.88,202.33V179.58a58,58,0,0,1,116,0v22.75"/>
  <path class="cls-4" d="M78,202.33V179.58a70.86,70.86,0,1,1,141.71,0v22.75"/>
  <path class="cls-5" d="M66.11,202.33V179.58a82.75,82.75,0,1,1,165.5,0v22.75"/>
  <path class="cls-6" d="M62.92,177.38a18,18,0,0,1,8.37,2.08,25.73,25.73,0,0,1,21.25-11.63c10,0,18.72,6,23.14,14.81a16.17,16.17,0,0,1,8.5-2.44c9.42,0,17,8.16,17,18.22v4.75H43.77v-5.34C43.77,186.54,52.34,177.38,62.92,177.38Z"/>
  <path class="cls-6" d="M177.92,177.38a18,18,0,0,1,8.37,2.08,25.73,25.73,0,0,1,21.25-11.63c10,0,18.72,6,23.14,14.81a16.17,16.17,0,0,1,8.5-2.44c9.42,0,17.05,8.16,17.05,18.22v4.75H158.77v-5.34C158.77,186.54,167.34,177.38,177.92,177.38Z"/>
  <path class="cls-7" d="M66.18,182.85a17.74,17.74,0,0,1,7.45,1.64,24,24,0,0,1,39.5,2.5,16.35,16.35,0,0,1,7.55-1.92c15.18-.26,20.18,18.1,20.18,18.1h-97S47.86,182.85,66.18,182.85Z"/>
  <path class="cls-6" d="M177.92,177.38a18,18,0,0,1,8.37,2.08,25.73,25.73,0,0,1,21.25-11.63c10,0,18.72,6,23.14,14.81a16.17,16.17,0,0,1,8.5-2.44c9.42,0,17.05,8.16,17.05,18.22v4.75H158.77v-5.34C158.77,186.54,167.34,177.38,177.92,177.38Z"/>
  <path class="cls-7" d="M181.09,182.53a17.74,17.74,0,0,1,7.45,1.64,24,24,0,0,1,39.5,2.5,16.35,16.35,0,0,1,7.55-1.92c15.18-.26,20.18,18.1,20.18,18.1h-97S162.77,182.53,181.09,182.53Z"/>
</svg>
